<svg xmlns="http://www.w3.org/2000/svg" viewBox="0 0 1200 900" width="1200" height="900">
  <defs>
    <linearGradient id="bgGrad" x1="0%" y1="0%" x2="100%" y2="100%">
      <stop offset="0%" style="stop-color:#0d1117;stop-opacity:1" />
      <stop offset="100%" style="stop-color:#161b22;stop-opacity:1" />
    </linearGradient>
    <linearGradient id="headerGrad" x1="0%" y1="0%" x2="100%" y2="0%">
      <stop offset="0%" style="stop-color:#1a2744;stop-opacity:1" />
      <stop offset="50%" style="stop-color:#0d2137;stop-opacity:1" />
      <stop offset="100%" style="stop-color:#1a2744;stop-opacity:1" />
    </linearGradient>
    <linearGradient id="goldGrad" x1="0%" y1="0%" x2="100%" y2="0%">
      <stop offset="0%" style="stop-color:#f5c518;stop-opacity:1" />
      <stop offset="100%" style="stop-color:#e8a000;stop-opacity:1" />
    </linearGradient>
    <linearGradient id="greenGrad" x1="0%" y1="0%" x2="0%" y2="100%">
      <stop offset="0%" style="stop-color:#1a3a2a;stop-opacity:1" />
      <stop offset="100%" style="stop-color:#0d2018;stop-opacity:1" />
    </linearGradient>
    <linearGradient id="cardGrad" x1="0%" y1="0%" x2="0%" y2="100%">
      <stop offset="0%" style="stop-color:#1c2128;stop-opacity:1" />
      <stop offset="100%" style="stop-color:#161b22;stop-opacity:1" />
    </linearGradient>
    <filter id="glow">
      <feGaussianBlur stdDeviation="3" result="coloredBlur"/>
      <feMerge><feMergeNode in="coloredBlur"/><feMergeNode in="SourceGraphic"/></feMerge>
    </filter>
    <filter id="softGlow">
      <feGaussianBlur stdDeviation="6" result="coloredBlur"/>
      <feMerge><feMergeNode in="coloredBlur"/><feMergeNode in="SourceGraphic"/></feMerge>
    </filter>
  </defs>

  <!-- Background -->
  <rect width="1200" height="900" fill="url(#bgGrad)"/>

  <!-- Subtle grid lines -->
  <g stroke="#1c2128" stroke-width="1" opacity="0.5">
    <line x1="0" y1="150" x2="1200" y2="150"/>
    <line x1="0" y1="450" x2="1200" y2="450"/>
    <line x1="0" y1="700" x2="1200" y2="700"/>
    <line x1="400" y1="150" x2="400" y2="700"/>
    <line x1="800" y1="150" x2="800" y2="700"/>
  </g>

  <!-- Header bar -->
  <rect x="0" y="0" width="1200" height="130" fill="url(#headerGrad)"/>
  <rect x="0" y="126" width="1200" height="4" fill="url(#goldGrad)" filter="url(#glow)"/>

  <!-- Header: candlestick icon -->
  <g transform="translate(60, 35)" opacity="0.9">
    <rect x="0" y="20" width="14" height="35" rx="2" fill="#26a641"/>
    <line x1="7" y1="10" x2="7" y2="20" stroke="#26a641" stroke-width="2"/>
    <line x1="7" y1="55" x2="7" y2="65" stroke="#26a641" stroke-width="2"/>
    <rect x="24" y="30" width="14" height="20" rx="2" fill="#f85149"/>
    <line x1="31" y1="18" x2="31" y2="30" stroke="#f85149" stroke-width="2"/>
    <line x1="31" y1="50" x2="31" y2="62" stroke="#f85149" stroke-width="2"/>
    <rect x="48" y="15" width="14" height="45" rx="2" fill="#26a641"/>
    <line x1="55" y1="5" x2="55" y2="15" stroke="#26a641" stroke-width="2"/>
    <line x1="55" y1="60" x2="55" y2="70" stroke="#26a641" stroke-width="2"/>
  </g>

  <!-- Header title -->
  <text x="155" y="52" font-family="'Courier New', monospace" font-size="36" font-weight="bold" fill="#f5c518" filter="url(#glow)">W118 "Curl if Flow"</text>
  <text x="155" y="85" font-family="'Courier New', monospace" font-size="18" fill="#8b949e">NASDAQ Small-Cap Momentum System — Reverse-Engineered</text>
  <text x="155" y="110" font-family="'Courier New', monospace" font-size="13" fill="#484f58">by Weatherman118 · $0.10–$15 · Float &lt;20M · 98% historical win rate (101 trades)</text>

  <!-- Badge top right -->
  <rect x="1010" y="20" width="170" height="90" rx="8" fill="#1a2744" stroke="#f5c518" stroke-width="1.5"/>
  <text x="1095" y="48" font-family="'Courier New', monospace" font-size="13" fill="#8b949e" text-anchor="middle">Historical</text>
  <text x="1095" y="78" font-family="'Courier New', monospace" font-size="34" font-weight="bold" fill="#26a641" text-anchor="middle" filter="url(#glow)">98%</text>
  <text x="1095" y="100" font-family="'Courier New', monospace" font-size="12" fill="#8b949e" text-anchor="middle">Win Rate</text>

  <!-- ═══ SECTION 1: 6 ENTRY CONDITIONS ═══ -->
  <rect x="20" y="158" width="370" height="280" rx="8" fill="url(#cardGrad)" stroke="#30363d" stroke-width="1"/>
  <rect x="20" y="158" width="370" height="36" rx="8" fill="#1a2744"/>
  <rect x="20" y="186" width="370" height="8" fill="#1a2744"/>
  <text x="205" y="182" font-family="'Courier New', monospace" font-size="14" font-weight="bold" fill="#f5c518" text-anchor="middle">6 ENTRY CONDITIONS (ALL required)</text>

  <!-- Conditions -->
  <g font-family="'Courier New', monospace" font-size="13.5">
    <!-- 1 -->
    <circle cx="50" cy="221" r="10" fill="#26a641" opacity="0.2"/>
    <text x="50" y="226" fill="#26a641" text-anchor="middle" font-size="13" font-weight="bold">1</text>
    <text x="70" y="218" fill="#26a641" font-weight="bold">Stoch RSI K</text>
    <text x="70" y="234" fill="#8b949e">K crosses UP thru 20, K &gt; D</text>
    <rect x="310" y="210" width="68" height="18" rx="3" fill="#1a3a1a"/>
    <text x="344" y="223" fill="#26a641" text-anchor="middle" font-size="11">CRITICAL</text>

    <!-- 2 -->
    <circle cx="50" cy="265" r="10" fill="#26a641" opacity="0.2"/>
    <text x="50" y="270" fill="#26a641" text-anchor="middle" font-size="13" font-weight="bold">2</text>
    <text x="70" y="262" fill="#26a641" font-weight="bold">SHA Candle Green</text>
    <text x="70" y="278" fill="#8b949e">Smoothed Heikin Ashi = bullish</text>
    <rect x="310" y="254" width="68" height="18" rx="3" fill="#1a3a1a"/>
    <text x="344" y="267" fill="#26a641" text-anchor="middle" font-size="11">CRITICAL</text>

    <!-- 3 -->
    <circle cx="50" cy="309" r="10" fill="#f5c518" opacity="0.2"/>
    <text x="50" y="314" fill="#f5c518" text-anchor="middle" font-size="13" font-weight="bold">3</text>
    <text x="70" y="306" fill="#f5c518" font-weight="bold">Above ZLSMA-50</text>
    <text x="70" y="322" fill="#8b949e">Price &gt; 2×EMA(50) − EMA(EMA(50))</text>
    <rect x="310" y="298" width="68" height="18" rx="3" fill="#1a3a1a"/>
    <text x="344" y="311" fill="#26a641" text-anchor="middle" font-size="11">CRITICAL</text>

    <!-- 4 -->
    <circle cx="50" cy="353" r="10" fill="#58a6ff" opacity="0.2"/>
    <text x="50" y="358" fill="#58a6ff" text-anchor="middle" font-size="13" font-weight="bold">4</text>
    <text x="70" y="350" fill="#58a6ff" font-weight="bold">Volume ≥ 1.5×</text>
    <text x="70" y="366" fill="#8b949e">Vs 20-bar average</text>
    <rect x="295" y="342" width="83" height="18" rx="3" fill="#1a2744"/>
    <text x="336" y="355" fill="#58a6ff" text-anchor="middle" font-size="11">CONFIRMING</text>

    <!-- 5 -->
    <circle cx="50" cy="397" r="10" fill="#8b949e" opacity="0.3"/>
    <text x="50" y="402" fill="#8b949e" text-anchor="middle" font-size="13" font-weight="bold">5</text>
    <text x="70" y="394" fill="#8b949e" font-weight="bold">Float Filter</text>
    <text x="70" y="410" fill="#8b949e">NASDAQ · $0.10–$15 · Float &lt;20M</text>
    <rect x="310" y="386" width="68" height="18" rx="3" fill="#201a1a"/>
    <text x="344" y="399" fill="#8b949e" text-anchor="middle" font-size="11">FILTER</text>

    <!-- 6 -->
    <circle cx="50" cy="418" r="10" fill="#d29922" opacity="0.2"/>
    <text x="50" y="423" fill="#d29922" text-anchor="middle" font-size="13" font-weight="bold" dy="7">6</text>
    <text x="70" y="426" fill="#d29922" font-weight="bold">Catalyst</text>
    <text x="70" y="421" fill="#8b949e" dy="21">FDA/merger &gt; halt-resume &gt; momentum</text>
    <rect x="295" y="417" width="83" height="18" rx="3" fill="#1a2744"/>
    <text x="336" y="430" fill="#d29922" text-anchor="middle" font-size="11">CONFIRMING</text>
  </g>

  <!-- ═══ SECTION 2: INDICATOR SETTINGS ═══ -->
  <rect x="410" y="158" width="370" height="280" rx="8" fill="url(#cardGrad)" stroke="#30363d" stroke-width="1"/>
  <rect x="410" y="158" width="370" height="36" rx="8" fill="#1a2744"/>
  <rect x="410" y="186" width="370" height="8" fill="#1a2744"/>
  <text x="595" y="182" font-family="'Courier New', monospace" font-size="14" font-weight="bold" fill="#f5c518" text-anchor="middle">INDICATOR SETTINGS</text>

  <g font-family="'Courier New', monospace">
    <!-- Stoch RSI -->
    <rect x="425" y="205" width="340" height="65" rx="5" fill="#1c2128" stroke="#30363d" stroke-width="1"/>
    <text x="441" y="223" font-size="13" font-weight="bold" fill="#26a641">Stochastic RSI</text>
    <text x="441" y="241" font-size="12" fill="#8b949e">RSI Length: 14  ·  Stoch Length: 14</text>
    <text x="441" y="258" font-size="12" fill="#8b949e">K Smooth: 3  ·  D Smooth: 3  ·  Source: Close</text>

    <!-- SHA -->
    <rect x="425" y="280" width="340" height="50" rx="5" fill="#1c2128" stroke="#30363d" stroke-width="1"/>
    <text x="441" y="298" font-size="13" font-weight="bold" fill="#26a641">Smoothed Heikin Ashi (SHA)</text>
    <text x="441" y="316" font-size="12" fill="#8b949e">Double EMA(10) on Heikin Ashi values</text>

    <!-- ZLSMA -->
    <rect x="425" y="340" width="340" height="50" rx="5" fill="#1c2128" stroke="#30363d" stroke-width="1"/>
    <text x="441" y="358" font-size="13" font-weight="bold" fill="#f5c518">ZLSMA-50  (yellow line)</text>
    <text x="441" y="376" font-size="12" fill="#8b949e">2 × EMA(close,50) − EMA(EMA(close,50),50)</text>

    <!-- KEY INSIGHT box -->
    <rect x="425" y="400" width="340" height="28" rx="5" fill="#1a2744" stroke="#f5c518" stroke-width="1"/>
    <text x="595" y="419" font-size="12" font-weight="bold" fill="#f5c518" text-anchor="middle">★  K crosses 20 from 0–10 = strongest signal</text>
  </g>

  <!-- ═══ SECTION 3: EXIT RULES ═══ -->
  <rect x="800" y="158" width="380" height="280" rx="8" fill="url(#cardGrad)" stroke="#30363d" stroke-width="1"/>
  <rect x="800" y="158" width="380" height="36" rx="8" fill="#1a2744"/>
  <rect x="800" y="186" width="380" height="8" fill="#1a2744"/>
  <text x="990" y="182" font-family="'Courier New', monospace" font-size="14" font-weight="bold" fill="#f5c518" text-anchor="middle">EXIT RULES</text>

  <g font-family="'Courier New', monospace" font-size="13.5">
    <!-- Stop -->
    <rect x="815" y="205" width="350" height="30" rx="4" fill="#2d1a1a"/>
    <text x="825" y="225" fill="#f85149" font-weight="bold">🛑  Stop Loss</text>
    <text x="1010" y="225" fill="#f85149" text-anchor="end">−8% from entry · hard stop, no exceptions</text>

    <!-- T1 -->
    <rect x="815" y="243" width="350" height="30" rx="4" fill="#1a2d1a"/>
    <text x="825" y="263" fill="#26a641" font-weight="bold">🎯  T1  +15%</text>
    <text x="1155" y="263" fill="#26a641" text-anchor="end">Trim ⅓ · move stop to breakeven</text>

    <!-- T2 -->
    <rect x="815" y="281" width="350" height="30" rx="4" fill="#1a2d1a"/>
    <text x="825" y="301" fill="#26a641" font-weight="bold">🎯  T2  +30%</text>
    <text x="1155" y="301" fill="#26a641" text-anchor="end">Trim ⅓ · trail stop 10%</text>

    <!-- T3 -->
    <rect x="815" y="319" width="350" height="30" rx="4" fill="#1a2d1a"/>
    <text x="825" y="339" fill="#26a641" font-weight="bold">🎯  T3  +60%</text>
    <text x="1155" y="339" fill="#26a641" text-anchor="end">Trail final ⅓ · let it run</text>

    <!-- Signal exits -->
    <text x="990" y="375" font-size="12" fill="#8b949e" text-anchor="middle">— Signal Exits —</text>
    <text x="825" y="395" font-size="12" fill="#f85149">SHA turns red 2+ candles  ·  K crosses back below 20  ·  Price closes below ZLSMA</text>

    <!-- Chase rule -->
    <rect x="815" y="407" width="350" height="22" rx="4" fill="#2d2200"/>
    <text x="990" y="422" font-size="12" font-weight="bold" fill="#d29922" text-anchor="middle">Chase rule: &lt;3% = OK  ·  3–8% = caution  ·  &gt;8% = wait</text>
  </g>

  <!-- ═══ SECTION 4: MORNING TOOLKIT ═══ -->
  <rect x="20" y="458" width="555" height="225" rx="8" fill="url(#cardGrad)" stroke="#30363d" stroke-width="1"/>
  <rect x="20" y="458" width="555" height="36" rx="8" fill="#1a2744"/>
  <rect x="20" y="486" width="555" height="8" fill="#1a2744"/>
  <text x="297" y="482" font-family="'Courier New', monospace" font-size="14" font-weight="bold" fill="#f5c518" text-anchor="middle">W118 MORNING TOOLKIT  (Google Colab)</text>

  <g font-family="'Courier New', monospace">
    <!-- Tool 1 -->
    <rect x="35" y="503" width="165" height="165" rx="6" fill="#1c2128" stroke="#30363d" stroke-width="1"/>
    <text x="117" y="523" font-size="12" font-weight="bold" fill="#58a6ff" text-anchor="middle">TOOL 1</text>
    <text x="117" y="540" font-size="11" fill="#f5c518" text-anchor="middle" font-weight="bold">Morning Scanner</text>
    <line x1="50" y1="547" x2="185" y2="547" stroke="#30363d" stroke-width="1"/>
    <text x="117" y="565" font-size="11" fill="#8b949e" text-anchor="middle">morning_scan()</text>
    <text x="45" y="584" font-size="10.5" fill="#8b949e">• Pulls NASDAQ movers</text>
    <text x="45" y="599" font-size="10.5" fill="#8b949e">• Filters &gt;10% gain, &lt;$15</text>
    <text x="45" y="614" font-size="10.5" fill="#8b949e">• Auto-grades top 5</text>
    <text x="45" y="629" font-size="10.5" fill="#8b949e">• Ranks by W118 score</text>
    <text x="45" y="651" font-size="10" fill="#484f58">via finvizfinance</text>

    <!-- Tool 2 -->
    <rect x="215" y="503" width="165" height="165" rx="6" fill="#1c2128" stroke="#30363d" stroke-width="1"/>
    <text x="297" y="523" font-size="12" font-weight="bold" fill="#58a6ff" text-anchor="middle">TOOL 2</text>
    <text x="297" y="540" font-size="11" fill="#f5c518" text-anchor="middle" font-weight="bold">Chart Grader</text>
    <line x1="230" y1="547" x2="365" y2="547" stroke="#30363d" stroke-width="1"/>
    <text x="297" y="565" font-size="11" fill="#8b949e" text-anchor="middle">grade_ticker('AAPL')</text>
    <text x="225" y="584" font-size="10.5" fill="#8b949e">• Downloads live chart</text>
    <text x="225" y="599" font-size="10.5" fill="#8b949e">• Checks all 6 conditions</text>
    <text x="225" y="614" font-size="10.5" fill="#8b949e">• Scores 0–5 / grades A+→F</text>
    <text x="225" y="629" font-size="10.5" fill="#8b949e">• Flags ZLSMA violations</text>
    <text x="225" y="651" font-size="10" fill="#484f58">via yfinance (5m bars)</text>

    <!-- Tool 3 -->
    <rect x="395" y="503" width="165" height="165" rx="6" fill="#1c2128" stroke="#30363d" stroke-width="1"/>
    <text x="477" y="523" font-size="12" font-weight="bold" fill="#58a6ff" text-anchor="middle">TOOL 3</text>
    <text x="477" y="540" font-size="11" fill="#f5c518" text-anchor="middle" font-weight="bold">Position Sizer</text>
    <line x1="410" y1="547" x2="545" y2="547" stroke="#30363d" stroke-width="1"/>
    <text x="477" y="565" font-size="11" fill="#8b949e" text-anchor="middle">pos_size(31, 2.45)</text>
    <text x="405" y="584" font-size="10.5" fill="#8b949e">• Stop / T1 / T2 / T3 prices</text>
    <text x="405" y="599" font-size="10.5" fill="#8b949e">• 5% / 10% risk sizing</text>
    <text x="405" y="614" font-size="10.5" fill="#8b949e">• Chase % warning</text>
    <text x="405" y="629" font-size="10.5" fill="#8b949e">• Max loss in dollars</text>
    <text x="405" y="651" font-size="10" fill="#484f58">pure math, no internet</text>
  </g>

  <!-- ═══ SECTION 5: GRADING SCALE ═══ -->
  <rect x="595" y="458" width="585" height="225" rx="8" fill="url(#cardGrad)" stroke="#30363d" stroke-width="1"/>
  <rect x="595" y="458" width="585" height="36" rx="8" fill="#1a2744"/>
  <rect x="595" y="486" width="585" height="8" fill="#1a2744"/>
  <text x="887" y="482" font-family="'Courier New', monospace" font-size="14" font-weight="bold" fill="#f5c518" text-anchor="middle">GRADING SCALE &amp; SESSION TIMING</text>

  <g font-family="'Courier New', monospace" font-size="13">
    <!-- Grades -->
    <rect x="610" y="502" width="270" height="30" rx="4" fill="#1a3a1a"/>
    <text x="625" y="522" fill="#f5c518" font-weight="bold">🏆 A+  5/5</text>
    <text x="875" y="522" fill="#26a641" text-anchor="end">ALL green — FIRE. Enter now.</text>

    <rect x="610" y="539" width="270" height="30" rx="4" fill="#162a16"/>
    <text x="625" y="559" fill="#26a641" font-weight="bold">✅  A   4/5</text>
    <text x="875" y="559" fill="#26a641" text-anchor="end">Strong — one condition missing</text>

    <rect x="610" y="576" width="270" height="30" rx="4" fill="#2a2a10"/>
    <text x="625" y="596" fill="#d29922" font-weight="bold">🟡  B   3/5</text>
    <text x="875" y="596" fill="#d29922" text-anchor="end">Wait for more confirmation</text>

    <rect x="610" y="613" width="270" height="30" rx="4" fill="#2d1a1a"/>
    <text x="625" y="633" fill="#f85149" font-weight="bold">🚫  F   &lt;3/5</text>
    <text x="875" y="633" fill="#f85149" text-anchor="end">Below ZLSMA — DO NOT TRADE</text>

    <!-- Session timing -->
    <text x="910" y="522" font-size="12" fill="#f5c518" font-weight="bold">Session Priority</text>
    <rect x="900" y="530" width="265" height="22" rx="3" fill="#1a3a1a"/>
    <text x="1032" y="546" font-size="12" fill="#26a641" text-anchor="middle">🌅 4am–9:30am  PREMARKET  (best)</text>
    <rect x="900" y="558" width="265" height="22" rx="3" fill="#162a16"/>
    <text x="1032" y="574" font-size="12" fill="#26a641" text-anchor="middle">📈 9:30–10:30am  RTH Open  (good)</text>
    <rect x="900" y="586" width="265" height="22" rx="3" fill="#2a2a10"/>
    <text x="1032" y="602" font-size="12" fill="#d29922" text-anchor="middle">😴 10:30am–3pm  Midday  (avoid)</text>
    <rect x="900" y="614" width="265" height="22" rx="3" fill="#201a1a"/>
    <text x="1032" y="630" font-size="12" fill="#8b949e" text-anchor="middle">⚡ 3–4pm  Power hour  (small size)</text>
  </g>

  <!-- ═══ BOTTOM: DAILY WORKFLOW ═══ -->
  <rect x="20" y="700" width="1160" height="175" rx="8" fill="url(#cardGrad)" stroke="#30363d" stroke-width="1"/>
  <rect x="20" y="700" width="1160" height="36" rx="8" fill="#1a2744"/>
  <rect x="20" y="728" width="1160" height="8" fill="#1a2744"/>
  <text x="600" y="724" font-family="'Courier New', monospace" font-size="14" font-weight="bold" fill="#f5c518" text-anchor="middle">DAILY WORKFLOW</text>

  <!-- Flow steps -->
  <g font-family="'Courier New', monospace">
    <!-- Step 1 -->
    <rect x="40" y="745" width="195" height="115" rx="6" fill="#1c2128" stroke="#30363d" stroke-width="1"/>
    <circle cx="137" cy="762" r="14" fill="#1a2744" stroke="#58a6ff" stroke-width="1.5"/>
    <text x="137" y="767" font-size="13" font-weight="bold" fill="#58a6ff" text-anchor="middle">1</text>
    <text x="137" y="790" font-size="12" font-weight="bold" fill="#f5c518" text-anchor="middle">morning_scan()</text>
    <text x="137" y="808" font-size="11" fill="#8b949e" text-anchor="middle">4am–9:30am premarket</text>
    <text x="137" y="824" font-size="11" fill="#8b949e" text-anchor="middle">Find today's movers</text>
    <text x="137" y="840" font-size="11" fill="#8b949e" text-anchor="middle">Top 5 auto-graded</text>

    <!-- Arrow 1→2 -->
    <line x1="238" y1="802" x2="268" y2="802" stroke="#f5c518" stroke-width="2"/>
    <polygon points="268,796 280,802 268,808" fill="#f5c518"/>

    <!-- Step 2 -->
    <rect x="283" y="745" width="195" height="115" rx="6" fill="#1c2128" stroke="#30363d" stroke-width="1"/>
    <circle cx="380" cy="762" r="14" fill="#1a2744" stroke="#58a6ff" stroke-width="1.5"/>
    <text x="380" y="767" font-size="13" font-weight="bold" fill="#58a6ff" text-anchor="middle">2</text>
    <text x="380" y="790" font-size="12" font-weight="bold" fill="#f5c518" text-anchor="middle">grade_ticker('XYZ')</text>
    <text x="380" y="808" font-size="11" fill="#8b949e" text-anchor="middle">Check each candidate</text>
    <text x="380" y="824" font-size="11" fill="#8b949e" text-anchor="middle">Look for A+ or A grade</text>
    <text x="380" y="840" font-size="11" fill="#8b949e" text-anchor="middle">K must be 20–40 range</text>

    <!-- Arrow 2→3 -->
    <line x1="481" y1="802" x2="511" y2="802" stroke="#f5c518" stroke-width="2"/>
    <polygon points="511,796 523,802 511,808" fill="#f5c518"/>

    <!-- Step 3 -->
    <rect x="526" y="745" width="195" height="115" rx="6" fill="#1c2128" stroke="#30363d" stroke-width="1"/>
    <circle cx="623" cy="762" r="14" fill="#1a2744" stroke="#58a6ff" stroke-width="1.5"/>
    <text x="623" y="767" font-size="13" font-weight="bold" fill="#58a6ff" text-anchor="middle">3</text>
    <text x="623" y="790" font-size="12" font-weight="bold" fill="#f5c518" text-anchor="middle">pos_size(cash, entry)</text>
    <text x="623" y="808" font-size="11" fill="#8b949e" text-anchor="middle">Calculate shares to buy</text>
    <text x="623" y="824" font-size="11" fill="#8b949e" text-anchor="middle">Get stop / T1 / T2 / T3</text>
    <text x="623" y="840" font-size="11" fill="#8b949e" text-anchor="middle">Check chase % first</text>

    <!-- Arrow 3→4 -->
    <line x1="724" y1="802" x2="754" y2="802" stroke="#f5c518" stroke-width="2"/>
    <polygon points="754,796 766,802 754,808" fill="#f5c518"/>

    <!-- Step 4 -->
    <rect x="769" y="745" width="195" height="115" rx="6" fill="#1a3a1a" stroke="#26a641" stroke-width="1.5"/>
    <circle cx="866" cy="762" r="14" fill="#1a3a1a" stroke="#26a641" stroke-width="1.5"/>
    <text x="866" y="767" font-size="13" font-weight="bold" fill="#26a641" text-anchor="middle">4</text>
    <text x="866" y="790" font-size="12" font-weight="bold" fill="#26a641" text-anchor="middle">ENTER TRADE</text>
    <text x="866" y="808" font-size="11" fill="#8b949e" text-anchor="middle">Set stop IMMEDIATELY</text>
    <text x="866" y="824" font-size="11" fill="#8b949e" text-anchor="middle">Trim at T1, trail T2/T3</text>
    <text x="866" y="840" font-size="11" fill="#8b949e" text-anchor="middle">90% watching, 10% clicking</text>

    <!-- Arrow 4→5 -->
    <line x1="967" y1="802" x2="997" y2="802" stroke="#f5c518" stroke-width="2"/>
    <polygon points="997,796 1009,802 997,808" fill="#f5c518"/>

    <!-- Step 5 -->
    <rect x="1012" y="745" width="148" height="115" rx="6" fill="#1c2128" stroke="#30363d" stroke-width="1"/>
    <circle cx="1086" cy="762" r="14" fill="#1a2744" stroke="#58a6ff" stroke-width="1.5"/>
    <text x="1086" y="767" font-size="13" font-weight="bold" fill="#58a6ff" text-anchor="middle">5</text>
    <text x="1086" y="790" font-size="12" font-weight="bold" fill="#f5c518" text-anchor="middle">LOG &amp; REVIEW</text>
    <text x="1086" y="808" font-size="11" fill="#8b949e" text-anchor="middle">copilot.html EOD</text>
    <text x="1086" y="824" font-size="11" fill="#8b949e" text-anchor="middle">coach grades you</text>
    <text x="1086" y="840" font-size="11" fill="#8b949e" text-anchor="middle">track win rate</text>
  </g>

  <!-- Footer -->
  <text x="600" y="888" font-family="'Courier New', monospace" font-size="11" fill="#484f58" text-anchor="middle">positivitysparkles/tradingbaby · W118 System Infographic · The stop loss IS the trade · Never hold below ZLSMA</text>
</svg>
